<svg xmlns="http://www.w3.org/2000/svg" width="848" height="224" viewBox="0 0 224.367 59.267"><defs><marker id="d" orient="auto" overflow="visible"><path d="M-1.2 0l-1 1 3.5-1-3.5-1z" fill="#feb013" fill-rule="evenodd" stroke="#feb013" stroke-width=".2pt"/></marker><marker id="b" orient="auto" overflow="visible"><path d="M-1.2 0l-1 1 3.5-1-3.5-1z" fill="#feb013" fill-rule="evenodd" stroke="#feb013" stroke-width=".2pt"/></marker><marker id="a" orient="auto" overflow="visible"><path d="M-1.2 0l-1 1 3.5-1-3.5-1z" fill="#65c4fe" fill-rule="evenodd" stroke="#65c4fe" stroke-width=".2pt"/></marker><clipPath id="c"><path fill="#fe0000" stroke-width=".529" stroke-linecap="round" stroke-linejoin="round" d="M165.1 0h50.8v50.8h-50.8z"/></clipPath></defs><path fill="#fff" paint-order="stroke fill markers" d="M0 0h224.367v59.267H0z"/><path d="M88.9 42.333a13.387 13.387 0 0 1-6.917.416l2.684-13.116z" fill="none" stroke="#65c4fe" stroke-width=".529" stroke-linecap="round" stroke-linejoin="round"/><circle cx="29.633" cy="29.633" r="1.058" fill="#fe0000"/><circle cx="33.867" cy="42.333" r="1.058" fill="#0900fe"/><path fill="none" stroke="#7e7e7e" stroke-width=".529" stroke-linecap="round" stroke-linejoin="round" d="M16.933 8.467h25.4V50.8h-25.4z"/><path fill="none" stroke="#000" stroke-width=".529" stroke-linecap="round" stroke-linejoin="round" d="M4.233 4.233h50.8v50.8h-50.8z"/><circle cx="88.14" cy="-16.67" r="1.058" transform="rotate(30)" fill="#fe0000"/><circle cx="88.9" cy="42.333" r="1.058" opacity=".5" fill="#0900fe"/><path fill="none" stroke="#8ae67f" stroke-width=".529" stroke-linecap="round" stroke-linejoin="round" paint-order="stroke fill markers" d="M63.085 4.952h43.164v49.362H63.085z"/><path fill="none" stroke="#7e7e7e" stroke-width=".529" stroke-linecap="round" stroke-linejoin="round" d="M84.251 4.952l21.998 12.7-21.167 36.662-21.997-12.7z"/><path fill="none" stroke="#000" stroke-width=".529" stroke-linecap="round" stroke-linejoin="round" d="M59.267 4.233h50.8v50.8h-50.8z"/><circle cx="92.373" cy="-3.97" r="1.058" transform="rotate(30)" fill="#0900fe"/><circle cx="135.8" cy="-44.187" r="1.058" transform="rotate(30)" fill="#fe0000"/><circle cx="143.933" cy="42.333" r="1.058" fill="#0900fe"/><path fill="none" stroke="#8ae67f" stroke-width=".529" stroke-linecap="round" stroke-linejoin="round" paint-order="stroke fill markers" d="M118.118 4.953h43.164v49.362h-43.164z"/><path fill="none" stroke="#7e7e7e" stroke-width=".529" stroke-linecap="round" stroke-linejoin="round" d="M139.284 4.953l21.997 12.7-21.166 36.661-21.997-12.7z"/><path fill="none" stroke="#000" stroke-width=".529" stroke-linecap="round" stroke-linejoin="round" d="M114.3 4.233h50.8v50.8h-50.8z"/><circle cx="140.034" cy="-31.487" r="1.058" transform="rotate(30)" fill="#0900fe"/><path d="M88.9 42.333a13.387 13.387 0 0 1-6.917.416" fill="none" stroke="#65c4fe" stroke-width=".529" stroke-linecap="round" stroke-linejoin="round" marker-end="url(#a)"/><path d="M137.016 42.749l6.917-.416" fill="none" stroke="#feb013" stroke-width=".529" stroke-linecap="round" stroke-linejoin="round" marker-end="url(#b)"/><g clip-path="url(#c)" transform="translate(4.233 4.233)"><circle cx="183.461" cy="-77.071" r="1.058" transform="rotate(30)" fill="#fe0000"/><circle cx="194.733" cy="38.1" r="1.058" fill="#0900fe"/><path fill="none" stroke="#7e7e7e" stroke-width=".529" stroke-linecap="round" stroke-linejoin="round" d="M197.002.304L219 13.004l-21.166 36.661-21.997-12.7z"/><path d="M187.816 38.515l6.917-.415" fill="none" stroke="#feb013" stroke-width=".529" stroke-linecap="round" stroke-linejoin="round" marker-end="url(#d)"/><path fill="none" stroke="#8ae67f" stroke-width=".529" stroke-linecap="round" stroke-linejoin="round" paint-order="stroke fill markers" d="M175.835.304h43.164v49.362h-43.164z"/></g><path fill="none" stroke="#000" stroke-width=".529" stroke-linecap="round" stroke-linejoin="round" d="M169.333 4.233h50.8v50.8h-50.8z"/><text style="line-height:1.25;text-align:center" x="29.633" y="33.867" font-weight="400" font-size="2.822" font-family="sans-serif" text-anchor="middle" fill="#fe0000" stroke="#fff" stroke-width=".529" paint-order="stroke fill markers" stroke-linejoin="round"><tspan x="29.633" y="33.867" style="text-align:center" paint-order="stroke fill markers">Bounding box</tspan><tspan x="29.633" y="37.394" style="text-align:center" paint-order="stroke fill markers">midpoint</tspan></text><text style="line-height:1.25;text-align:center" x="33.867" y="46.567" font-weight="400" font-size="2.822" font-family="sans-serif" text-anchor="middle" fill="#0900fe" stroke="#fff" stroke-width=".529" paint-order="stroke fill markers" stroke-linejoin="round"><tspan x="33.867" y="46.567" style="text-align:center" paint-order="stroke fill markers">Skin rotation</tspan><tspan x="33.867" y="50.094" style="text-align:center" paint-order="stroke fill markers">center</tspan></text></svg>